# xmcd
#
# Track frame offsets: 
#        150
#        14243
#        27799
#        41051
#        54540
#        66957
#        81851
#        94810
#        109311
#        121667
#        134454
#        147414
#        162341
#        176989
#        192677
#        208147
#        221417
#        234111
#        248622
#        261335
#        276569
#        289960
#        304561
#        318700
#
# Disc length: 4427 seconds
#
# Revision: 0
# Processed by: cddbd v1.4PL0 Copyright (c) Steve Scherf et al.
# Submitted via: ExactAudioCopy v0.95a4
#
DISCID=7c114918
DTITLE=Various Artist - Henry's Worry Blues
DYEAR=2000
DGENRE=Blues
TTITLE0=Henry Townsend - Henry's Worry Blues
TTITLE1=Henry Townsend - Mistreated Blues
TTITLE2=Henry Townsend - Long Ago Blues
TTITLE3=Henry Townsend - Poor Man Blues
TTITLE4=Henry Townsend - Doctor Oh Doctor
TTITLE5=Henry Townsend - Jack Of Diamonds Georgia Rub
TTITLE6=Henry Townsend - No Home Blues
TTITLE7=Henry Townsend - Take A Chance
TTITLE8=Henry Townsend - She's Got What I Want
TTITLE9=Henry Townsend - My Sweet Candy
TTITLE10=Henry Townsend - Sick With The Blues
TTITLE11=Henry Townsend - Don't Love That Woman
TTITLE12=Henry Townsend - She's Got A Mean Disposition
TTITLE13=Henry Townsend - Lose Your Man
TTITLE14=Henry Townsend - All I've Got's Gone
TTITLE15=Henry Townsend - A Ramblin' Mind
TTITLE16=Henry Townsend - Now I Stay Away
TTITLE17=J. D. Short - Telephone Arguin' Blues
TTITLE18=J. D. Short - Lonesome Swamp Rattlesnake
TTITLE19=J. D. Short - Snake Doctor Blues
TTITLE20=J. D. Short - Barefoot Blues
TTITLE21=J. D. Short - Grand Daddy Blues
TTITLE22=Joe Stone - It's A Hard Time
TTITLE23=Joe Stone - Back Door Blues
EXTD=
EXTT0=
EXTT1=
EXTT2=
EXTT3=
EXTT4=
EXTT5=
EXTT6=
EXTT7=
EXTT8=
EXTT9=
EXTT10=
EXTT11=
EXTT12=
EXTT13=
EXTT14=
EXTT15=
EXTT16=
EXTT17=
EXTT18=
EXTT19=
EXTT20=
EXTT21=
EXTT22=
EXTT23=
PLAYORDER=
